# xmcd
#
# Track frame offsets: 
#        150
#        21900
#        50524
#        82077
#        108450
#        149738
#        167730
#
# Disc length: 2675 seconds
#
# Revision: 0
# Processed by: cddbd v1.4PL0 Copyright (c) Steve Scherf et al.
# Submitted via: ExactAudioCopy v0.90b4
#
DISCID=620a7107
DTITLE=Billy Jenkins with the Blues Collective - Life
DYEAR=1900
DGENRE=Blues
TTITLE0=I Wanna Be Connected
TTITLE1=First Day in Hell
TTITLE2=My Waters Run Clear
TTITLE3=There is No Lord Up There
TTITLE4=Blues Stay Away from Me
TTITLE5=I Ain't Going Yet
TTITLE6=Bye Bye Blues
EXTD=
EXTT0=
EXTT1=
EXTT2=
EXTT3=
EXTT4=
EXTT5=
EXTT6=
PLAYORDER=
